<svg width="446" height="230" viewBox="0 0 446 230" fill="none" xmlns="http://www.w3.org/2000/svg">
<rect width="446" height="230" fill="#12131B"/>
<path d="M97.4259 113.203C101.47 114.064 104.718 116.086 107.171 119.268C109.624 122.384 110.85 125.964 110.85 130.007C110.85 135.841 108.795 140.482 104.685 143.929C100.641 147.31 94.9731 149 87.6811 149H55.1651V79.1951H86.5873C93.6804 79.1951 99.2158 80.8192 103.193 84.0675C107.237 87.3158 109.259 91.7242 109.259 97.2927C109.259 101.403 108.165 104.817 105.978 107.535C103.856 110.253 101.006 112.142 97.4259 113.203ZM72.1689 107.435H83.3058C86.0901 107.435 88.2114 106.839 89.6698 105.645C91.1945 104.386 91.9569 102.563 91.9569 100.176C91.9569 97.7899 91.1945 95.9668 89.6698 94.7073C88.2114 93.4478 86.0901 92.818 83.3058 92.818H72.1689V107.435ZM84.6979 135.278C87.5485 135.278 89.7361 134.648 91.2608 133.388C92.8518 132.063 93.6473 130.173 93.6473 127.72C93.6473 125.268 92.8186 123.345 91.1614 121.953C89.5704 120.561 87.3496 119.865 84.4991 119.865H72.1689V135.278H84.6979ZM117.331 121.158C117.331 115.457 118.392 110.452 120.513 106.143C122.701 101.834 125.651 98.5191 129.363 96.1989C133.075 93.8787 137.219 92.7186 141.793 92.7186C145.704 92.7186 149.118 93.5141 152.035 95.105C155.018 96.696 157.305 98.7842 158.896 101.37V93.5141H175.9V149H158.896V141.144C157.239 143.73 154.918 145.818 151.935 147.409C149.019 149 145.605 149.795 141.693 149.795C137.185 149.795 133.075 148.635 129.363 146.315C125.651 143.929 122.701 140.581 120.513 136.272C118.392 131.897 117.331 126.859 117.331 121.158ZM158.896 121.257C158.896 117.014 157.703 113.667 155.316 111.214C152.996 108.761 150.145 107.535 146.765 107.535C143.384 107.535 140.5 108.761 138.114 111.214C135.793 113.6 134.633 116.915 134.633 121.158C134.633 125.4 135.793 128.781 138.114 131.3C140.5 133.753 143.384 134.979 146.765 134.979C150.145 134.979 152.996 133.753 155.316 131.3C157.703 128.847 158.896 125.5 158.896 121.257ZM205.205 102.762C207.194 99.7123 209.68 97.3258 212.663 95.6022C215.646 93.8124 218.96 92.9174 222.606 92.9174V110.916H217.933C213.69 110.916 210.508 111.844 208.387 113.7C206.266 115.49 205.205 118.672 205.205 123.246V149H188.201V93.5141H205.205V102.762ZM247.738 101.37C249.329 98.7842 251.616 96.696 254.599 95.105C257.582 93.5141 260.996 92.7186 264.841 92.7186C269.415 92.7186 273.558 93.8787 277.27 96.1989C280.983 98.5191 283.9 101.834 286.021 106.143C288.209 110.452 289.302 115.457 289.302 121.158C289.302 126.859 288.209 131.897 286.021 136.272C283.9 140.581 280.983 143.929 277.27 146.315C273.558 148.635 269.415 149.795 264.841 149.795C260.93 149.795 257.516 149.033 254.599 147.508C251.682 145.917 249.395 143.829 247.738 141.244V149H230.734V75.4165H247.738V101.37ZM272 121.158C272 116.915 270.807 113.6 268.421 111.214C266.1 108.761 263.217 107.535 259.77 107.535C256.389 107.535 253.505 108.761 251.118 111.214C248.798 113.667 247.638 117.014 247.638 121.257C247.638 125.5 248.798 128.847 251.118 131.3C253.505 133.753 256.389 134.979 259.77 134.979C263.15 134.979 266.034 133.753 268.421 131.3C270.807 128.781 272 125.4 272 121.158ZM350.527 120.362C350.527 121.953 350.427 123.61 350.229 125.334H311.746C312.012 128.781 313.105 131.433 315.028 133.289C317.017 135.079 319.436 135.974 322.287 135.974C326.529 135.974 329.479 134.184 331.137 130.604H349.234C348.306 134.25 346.616 137.532 344.163 140.448C341.776 143.365 338.76 145.652 335.114 147.31C331.468 148.967 327.391 149.795 322.883 149.795C317.447 149.795 312.608 148.635 308.366 146.315C304.123 143.995 300.808 140.68 298.422 136.371C296.035 132.063 294.842 127.024 294.842 121.257C294.842 115.49 296.002 110.452 298.322 106.143C300.709 101.834 304.023 98.5191 308.266 96.1989C312.509 93.8787 317.381 92.7186 322.883 92.7186C328.253 92.7186 333.026 93.8455 337.202 96.0994C341.379 98.3533 344.627 101.568 346.947 105.745C349.334 109.921 350.527 114.794 350.527 120.362ZM333.125 115.887C333.125 112.971 332.131 110.65 330.142 108.927C328.154 107.203 325.668 106.341 322.685 106.341C319.834 106.341 317.414 107.17 315.426 108.827C313.503 110.485 312.31 112.838 311.846 115.887H333.125ZM376.501 102.762C378.49 99.7123 380.976 97.3258 383.959 95.6022C386.942 93.8124 390.256 92.9174 393.902 92.9174V110.916H389.229C384.986 110.916 381.804 111.844 379.683 113.7C377.562 115.49 376.501 118.672 376.501 123.246V149H359.497V93.5141H376.501V102.762Z" fill="url(#paint0_linear_1_69)"/>
<rect x="325.876" y="132.799" width="71.1241" height="33.6501" rx="1.73157" fill="white"/>
<path d="M349.121 147.283C349.121 148.398 348.865 149.421 348.353 150.353C347.842 151.266 347.056 152.006 345.996 152.573C344.937 153.139 343.621 153.422 342.05 153.422H339.145V160.329H334.458V141.089H342.05C343.585 141.089 344.882 141.354 345.942 141.884C347.001 142.414 347.796 143.145 348.326 144.077C348.856 145.009 349.121 146.077 349.121 147.283ZM341.693 149.695C342.589 149.695 343.256 149.485 343.694 149.065C344.133 148.645 344.352 148.051 344.352 147.283C344.352 146.516 344.133 145.922 343.694 145.502C343.256 145.082 342.589 144.872 341.693 144.872H339.145V149.695H341.693ZM361.372 160.329L357.371 153.066H356.247V160.329H351.561V141.089H359.426C360.943 141.089 362.231 141.354 363.291 141.884C364.369 142.414 365.172 143.145 365.702 144.077C366.232 144.99 366.497 146.014 366.497 147.146C366.497 148.425 366.132 149.567 365.401 150.572C364.688 151.577 363.629 152.29 362.222 152.71L366.662 160.329H361.372ZM356.247 149.75H359.152C360.011 149.75 360.65 149.54 361.071 149.12C361.509 148.699 361.728 148.106 361.728 147.338C361.728 146.607 361.509 146.032 361.071 145.612C360.65 145.191 360.011 144.981 359.152 144.981H356.247V149.75ZM378.538 160.521C376.729 160.521 375.067 160.101 373.55 159.26C372.052 158.42 370.855 157.25 369.96 155.752C369.083 154.236 368.644 152.536 368.644 150.654C368.644 148.772 369.083 147.082 369.96 145.584C370.855 144.086 372.052 142.917 373.55 142.076C375.067 141.236 376.729 140.815 378.538 140.815C380.347 140.815 382 141.236 383.499 142.076C385.015 142.917 386.203 144.086 387.062 145.584C387.939 147.082 388.377 148.772 388.377 150.654C388.377 152.536 387.939 154.236 387.062 155.752C386.184 157.25 384.997 158.42 383.499 159.26C382 160.101 380.347 160.521 378.538 160.521ZM378.538 156.245C380.073 156.245 381.297 155.734 382.211 154.711C383.142 153.687 383.608 152.335 383.608 150.654C383.608 148.955 383.142 147.603 382.211 146.598C381.297 145.575 380.073 145.063 378.538 145.063C376.985 145.063 375.743 145.566 374.811 146.571C373.897 147.576 373.44 148.937 373.44 150.654C373.44 152.354 373.897 153.715 374.811 154.738C375.743 155.743 376.985 156.245 378.538 156.245Z" fill="#12131B"/>
<defs>
<linearGradient id="paint0_linear_1_69" x1="222.5" y1="71.9217" x2="222.5" y2="189" gradientUnits="userSpaceOnUse">
<stop stop-color="#FBA931"/>
<stop offset="1" stop-color="#FBC231"/>
</linearGradient>
</defs>
</svg>
